<?xml version="1.0" encoding="utf-8"?>
<!-- Generator: Adobe Illustrator 27.9.0, SVG Export Plug-In . SVG Version: 6.00 Build 0)  -->
<svg version="1.1" id="Layer_1" xmlns="http://www.w3.org/2000/svg" xmlns:xlink="http://www.w3.org/1999/xlink" x="0px" y="0px"
	 viewBox="0 0 126 42" style="enable-background:new 0 0 126 42;" xml:space="preserve">
<style type="text/css">
	.st0{fill:#FA0041;}
	.st1{fill:#FFFFFF;}
</style>
<g>
	<g>
		<path class="st0" d="M105,0c11.6,0,21,9.4,21,21s-9.4,21-21,21H21C9.4,42,0,32.6,0,21S9.4,0,21,0H105z"/>
		<path class="st1" d="M116.7,19h-9.4l-3.5,4.1h7.9C111,26,108.3,28,105,28c-4,0-6.9-3-6.9-7c0-4.2,2.9-7.1,6.9-7.1
			c2.2,0,3.9,1,5.3,2.4l3.1-3.7c-2.2-2.2-5.1-3.6-8.5-3.6C98.1,9,93,14.2,93,20.9s5.1,11.9,11.9,11.9c6.2,0,10.7-4.2,11.7-9.8
			c0.1-0.7,0.2-1.4,0.2-2.1C116.9,20.3,116.9,19.6,116.7,19z M83.6,28c-4,0-6.9-3-6.9-7s2.9-7.1,6.9-7.1c2.2,0,3.9,1,5.3,2.4
			l3.1-3.7C89.8,10.4,86.9,9,83.5,9c-6.8,0-11.9,5.2-11.9,11.9s5.1,11.9,11.9,11.9c3.4,0,6.4-1.4,8.5-3.5l-3.1-3.7
			C87.6,27,85.9,28,83.6,28z M63,19v5h-4.1l-3.5,4.1H63v4.4h5.2V12.8L63,19z M61.7,9.4L42.3,32.6H49L68.4,9.4H61.7z"/>
	</g>
</g>
</svg>
